<svg width="56" height="56" viewBox="0 0 56 56" fill="none" xmlns="http://www.w3.org/2000/svg">
<g clip-path="url(#clip0_510_411)">
<path d="M9.91681 0.699219H46.0832C51.5668 0.699219 56 5.13241 56 10.616V45.3824C56 50.866 51.5668 55.2992 46.0832 55.2992H9.91681C4.43319 55.2992 0 50.866 0 45.3824V10.616C0 5.13241 4.43319 0.699219 9.91681 0.699219Z" fill="#001E36"/>
<path d="M20.0664 14.584C19.3664 14.584 18.6664 14.584 17.9432 14.6076C17.2196 14.6308 16.5428 14.6308 15.9128 14.6544C15.2828 14.6776 14.6996 14.6776 14.1396 14.7008C13.6028 14.724 13.2296 14.724 12.8328 14.724C12.6696 14.724 12.5996 14.8172 12.5996 14.9808V38.9908C12.5996 39.2008 12.6928 39.2944 12.8796 39.2944H17.4064C17.5696 39.2708 17.6864 39.1308 17.6628 38.9676V31.4776C18.106 31.4776 18.4328 31.4776 18.6664 31.5008C18.8996 31.524 19.2728 31.524 19.8328 31.524C21.7464 31.524 23.4964 31.314 25.0828 30.7308C26.5996 30.1708 27.9064 29.1908 28.8396 27.884C29.7729 26.5773 30.2396 24.9207 30.2396 22.914C30.2396 21.864 30.0532 20.8608 29.7032 19.8808C29.3324 18.8824 28.7514 17.9753 27.9996 17.2208C27.1123 16.3588 26.0442 15.7051 24.8728 15.3072C23.566 14.8172 21.9796 14.584 20.0664 14.584ZM20.587 19.1799C21.4183 19.1957 22.2277 19.3409 22.9828 19.6472C23.6596 19.904 24.2196 20.3708 24.6164 20.9772C24.9886 21.6047 25.1747 22.3251 25.1532 23.0544C25.1532 24.0808 24.9196 24.8744 24.4296 25.4576C23.916 26.0408 23.2628 26.4844 22.5164 26.6944C21.6528 26.9744 20.7428 27.114 19.8328 27.114H18.596C18.316 27.114 18.0132 27.0908 17.6864 27.0676V19.2276C17.8496 19.204 18.1764 19.1808 18.6432 19.2044C19.0864 19.1808 19.6228 19.1808 20.2296 19.1808C20.3492 19.1779 20.4683 19.1776 20.587 19.1799ZM40.1564 20.3712C38.4996 20.3712 37.1228 20.6276 36.0264 21.1876C35.0232 21.6544 34.1596 22.4008 33.5764 23.334C33.0632 24.1976 32.7828 25.154 32.7828 26.1576C32.7629 26.9831 32.9473 27.8006 33.3196 28.5376C33.756 29.3223 34.3619 29.9998 35.0932 30.5208C36.1197 31.2228 37.2335 31.7876 38.4064 32.2008C39.5496 32.644 40.3196 32.994 40.6932 33.2972C41.0664 33.6008 41.2532 33.904 41.2532 34.2308C41.2532 34.6508 40.9964 35.0476 40.6232 35.2108C40.2032 35.4208 39.5732 35.5376 38.6864 35.5376C37.7532 35.5376 36.8196 35.4208 35.9328 35.1876C34.9146 34.9602 33.9383 34.5744 33.0396 34.0444C32.9696 33.9976 32.8996 33.9744 32.8296 34.0212C32.7596 34.0676 32.7364 34.1608 32.7364 34.2308V38.2908C32.7132 38.4776 32.8296 38.6408 32.9932 38.734C33.7499 39.0875 34.5503 39.3386 35.3732 39.4808C36.4232 39.6908 37.4728 39.784 38.546 39.784C40.226 39.784 41.6264 39.5276 42.7696 39.0376C43.8196 38.6176 44.7296 37.8944 45.3828 36.9608C45.9945 36.043 46.312 34.9605 46.2928 33.8576C46.3158 33.0245 46.1315 32.1987 45.7564 31.4544C45.3128 30.6608 44.6828 30.0076 43.9128 29.5176C42.7863 28.8102 41.5803 28.2384 40.3196 27.814C39.7566 27.581 39.2039 27.3241 38.6628 27.044C38.3596 26.8808 38.0796 26.6708 37.8696 26.414C37.7296 26.2272 37.6364 26.0176 37.6364 25.8076C37.6364 25.5976 37.7064 25.3644 37.8228 25.1776C37.9864 24.9444 38.2428 24.7808 38.546 24.7108C38.9896 24.5944 39.4796 24.524 39.946 24.5472C40.8328 24.5472 41.696 24.664 42.5596 24.8508C43.3532 25.014 44.0996 25.2708 44.7996 25.6444C44.8928 25.6908 45.0096 25.6908 45.2196 25.6444C45.2561 25.6174 45.2856 25.5822 45.3059 25.5416C45.3262 25.501 45.3367 25.4562 45.3364 25.4108V21.6076C45.3364 21.514 45.3128 21.4208 45.2896 21.3276C45.2428 21.2344 45.1496 21.1408 45.0564 21.1176C44.4129 20.8546 43.7385 20.6742 43.0496 20.5808C42.0915 20.4413 41.1246 20.3715 40.1564 20.3712Z" fill="#31A8FF"/>
</g>
<defs>
<clipPath id="clip0_510_411">
<rect width="56" height="56" fill="white"/>
</clipPath>
</defs>
</svg>
