<svg width="56" height="56" viewBox="0 0 56 56" fill="none" xmlns="http://www.w3.org/2000/svg">
<path d="M12.2194 4.52205L28 2.86523L43.7806 4.52248L56 20.7896L28 53.1366L0 20.7896L12.2194 4.52205Z" fill="#FDB300"/>
<path d="M11.3422 20.7891L28 53.1361L0 20.7891H11.3422ZM44.6578 20.7891L28 53.1361L56 20.7891H44.6578Z" fill="#EA6C00"/>
<path d="M11.3418 20.7891H44.6574L27.9996 53.1361L11.3418 20.7891Z" fill="#FDAD00"/>
<path d="M27.9996 2.86523L12.219 4.52205L11.3418 20.7896L27.9996 2.86523ZM27.9996 2.86523L43.7802 4.52205L44.6574 20.7896L27.9996 2.86523Z" fill="#FDD231"/>
<path d="M55.9996 20.789L43.7803 4.52148L44.6575 20.789H55.9996Z" fill="#FDAD00"/>
<path d="M27.9996 2.86523L11.3418 20.7896H44.6574L27.9996 2.86523Z" fill="#FEEEB7"/>
<path d="M0 20.789L12.2194 4.52148L11.3422 20.789H0Z" fill="#FDAD00"/>
</svg>
