<svg width="56" height="56" viewBox="0 0 56 56" fill="none" xmlns="http://www.w3.org/2000/svg">
<g clip-path="url(#clip0_510_414)">
<path d="M9.93125 0.699219H46.1125C51.5812 0.699219 56.0438 5.11797 56.0438 10.6305V45.4117C56.0438 50.8805 51.625 55.343 46.1125 55.343H9.93125C4.41875 55.2992 0 50.8805 0 45.368V10.6305C0 5.11797 4.41875 0.699219 9.93125 0.699219Z" fill="#330000"/>
<path d="M27.0812 33.3809H18.3749L16.6249 38.8496C16.5812 39.0684 16.4062 39.1996 16.1874 39.1559H11.8124C11.5499 39.1559 11.5062 39.0246 11.5499 38.7184L19.0749 17.1059C19.1624 16.8871 19.2062 16.6246 19.2937 16.3184C19.3812 15.8371 19.4249 15.3121 19.4249 14.7871C19.3812 14.6559 19.5124 14.5684 19.5999 14.5246H25.6374C25.8124 14.5246 25.8999 14.6121 25.9437 14.6996L34.4749 38.7184C34.5624 38.9809 34.4749 39.1121 34.2562 39.1121H29.3562C29.1812 39.1559 29.0499 39.0246 28.9624 38.8496L27.0812 33.3809ZM19.7312 28.6121H25.6374C25.5062 28.1309 25.3312 27.5184 25.1124 26.9496C24.8937 26.3371 24.6749 25.6371 24.4999 24.9371C24.2812 24.1934 24.0624 23.4934 23.8437 22.7934C23.6249 22.0496 23.4062 21.3934 23.2312 20.7371C23.0562 20.0809 22.8812 19.4684 22.7062 18.8996H22.6624C22.4437 19.9059 22.1812 20.9121 21.8749 21.9184C21.5249 23.0559 21.1749 24.1934 20.7812 25.3746C20.4312 26.5559 20.0812 27.6496 19.7312 28.6121ZM39.6812 18.6809C38.8937 18.7246 38.1499 18.4184 37.6249 17.8496C37.0999 17.2809 36.7937 16.4934 36.8374 15.7059C36.7937 14.9184 37.0999 14.1746 37.6687 13.6496C38.2374 13.1246 38.9812 12.8184 39.7249 12.8184C40.6437 12.8184 41.3437 13.0809 41.8687 13.6496C42.3937 14.2184 42.6562 14.9621 42.6562 15.7059C42.6999 16.4934 42.3937 17.2809 41.8249 17.8496C41.2562 18.4184 40.4687 18.7246 39.6812 18.6809ZM37.0562 38.9371V20.9559C37.0562 20.7371 37.1437 20.6496 37.3624 20.6496H41.9999C42.2187 20.6496 42.3062 20.7809 42.3062 20.9559V38.9371C42.3062 39.1996 42.2187 39.3309 41.9999 39.3309H37.4062C37.1874 39.2871 37.0562 39.1559 37.0562 38.9371Z" fill="#FF9A00"/>
</g>
<defs>
<clipPath id="clip0_510_414">
<rect width="56" height="56" fill="white"/>
</clipPath>
</defs>
</svg>
