<svg width="24" height="24" viewBox="0 0 24 24" fill="none" xmlns="http://www.w3.org/2000/svg">
<path d="M12.5427 15.9295L20.5077 7.56996C20.6407 7.43048 20.7148 7.24516 20.7148 7.05246C20.7148 6.85975 20.6407 6.67444 20.5077 6.53496L20.4987 6.52596C20.4342 6.45811 20.3567 6.40408 20.2707 6.36716C20.1847 6.33023 20.092 6.3112 19.9984 6.3112C19.9049 6.3112 19.8122 6.33023 19.7262 6.36716C19.6402 6.40408 19.5627 6.45811 19.4982 6.52596L11.9982 14.398L4.5012 6.52596C4.43674 6.45811 4.35915 6.40408 4.27315 6.36716C4.18715 6.33024 4.09454 6.3112 4.00095 6.3112C3.90736 6.3112 3.81475 6.33024 3.72875 6.36716C3.64275 6.40408 3.56516 6.45811 3.5007 6.52596L3.4917 6.53496C3.35873 6.67444 3.28456 6.85975 3.28456 7.05246C3.28456 7.24517 3.35873 7.43048 3.4917 7.56996L11.4567 15.9295C11.5267 16.003 11.611 16.0615 11.7043 16.1015C11.7977 16.1415 11.8982 16.1621 11.9997 16.1621C12.1012 16.1621 12.2017 16.1415 12.2951 16.1015C12.3884 16.0615 12.4727 16.003 12.5427 15.9295Z" fill="#6D6D6D"/>
</svg>
