<svg width="24" height="24" viewBox="0 0 24 24" fill="none" xmlns="http://www.w3.org/2000/svg">
<path d="M7.05726 2.41732L8.22426 2.06632C8.86355 1.87355 9.55115 1.91995 10.1587 2.19688C10.7663 2.47381 11.2524 2.96234 11.5263 3.57132L12.4283 5.57732C12.6637 6.10112 12.7293 6.6855 12.6158 7.24846C12.5022 7.81142 12.2153 8.32471 11.7953 8.71632L10.3003 10.1093C10.2566 10.15 10.2289 10.205 10.2223 10.2643C10.1783 10.6613 10.4473 11.4343 11.0683 12.5093C11.5183 13.2903 11.9273 13.8393 12.2743 14.1463C12.5173 14.3613 12.6503 14.4073 12.7073 14.3913L14.7173 13.7763C15.2662 13.6084 15.8539 13.6165 16.398 13.7994C16.942 13.9823 17.4153 14.3309 17.7513 14.7963L19.0313 16.5723C19.4209 17.1123 19.6014 17.7753 19.5393 18.4383C19.4771 19.1013 19.1765 19.7192 18.6933 20.1773L17.8063 21.0173C17.336 21.4626 16.7585 21.7786 16.1299 21.9344C15.5013 22.0902 14.843 22.0805 14.2193 21.9063C11.4653 21.1373 8.99626 18.8133 6.78426 14.9823C4.57026 11.1463 3.79226 7.84232 4.51026 5.06932C4.67144 4.44566 4.99055 3.87402 5.43684 3.40952C5.88312 2.94502 6.44054 2.60331 7.05726 2.41732ZM7.49126 3.85432C7.12115 3.96563 6.78595 4.1704 6.51797 4.44889C6.24999 4.72738 6.05826 5.0702 5.96126 5.44432C5.35926 7.77632 6.04826 10.7053 8.08426 14.2323C10.1183 17.7543 12.3073 19.8153 14.6243 20.4623C14.9985 20.5667 15.3935 20.5724 15.7706 20.4788C16.1477 20.3852 16.4942 20.1956 16.7763 19.9283L17.6623 19.0883C17.8821 18.8801 18.0188 18.5992 18.0472 18.2978C18.0755 17.9963 17.9934 17.6948 17.8163 17.4493L16.5363 15.6743C16.3835 15.4625 16.1683 15.3039 15.9208 15.2207C15.6733 15.1375 15.4059 15.1338 15.1563 15.2103L13.1413 15.8273C11.9713 16.1753 10.9103 15.2343 9.77026 13.2593C9.00026 11.9293 8.64226 10.8993 8.73226 10.0983C8.77826 9.68232 8.97226 9.29832 9.27726 9.01232L10.7723 7.61932C10.9631 7.44122 11.0934 7.20783 11.1449 6.95191C11.1964 6.69598 11.1664 6.43036 11.0593 6.19232L10.1583 4.18632C10.0338 3.90951 9.8128 3.68746 9.5366 3.56159C9.26041 3.43573 8.94785 3.41467 8.65726 3.50232L7.49126 3.85432Z" fill="white"/>
</svg>
