<svg width="12" height="16" viewBox="0 0 12 16" fill="none" xmlns="http://www.w3.org/2000/svg">
<path d="M6 7.5C7.03387 7.5 7.875 6.65887 7.875 5.625C7.875 4.59113 7.03387 3.75 6 3.75C4.96613 3.75 4.125 4.59113 4.125 5.625C4.125 6.65887 4.96613 7.5 6 7.5ZM6 5C6.34462 5 6.625 5.28038 6.625 5.625C6.625 5.96962 6.34462 6.25 6 6.25C5.65538 6.25 5.375 5.96962 5.375 5.625C5.375 5.28038 5.65538 5 6 5Z" fill="white"/>
<path d="M11.625 5.625C11.625 2.52338 9.10163 0 6 0C2.89838 0 0.375 2.52338 0.375 5.625C0.375 6.85203 0.763188 8.01816 1.49763 8.99731L4.49944 12.9994C4.85203 13.4694 5.413 13.75 6 13.75C6.587 13.75 7.14797 13.4694 7.50059 12.9993L10.5024 8.99731C11.2368 8.01816 11.625 6.85203 11.625 5.625ZM9.50241 8.24725L6.50066 12.2493C6.38109 12.4086 6.19863 12.5 6 12.5C5.80137 12.5 5.61891 12.4086 5.49937 12.2493L2.49759 8.24725C1.92675 7.48619 1.625 6.57941 1.625 5.625C1.625 3.21263 3.58763 1.25 6 1.25C8.41237 1.25 10.375 3.21263 10.375 5.625C10.375 6.57941 10.0732 7.48619 9.50241 8.24725Z" fill="white"/>
<path d="M9.125 15.375C9.125 15.0298 8.84519 14.75 8.5 14.75H3.5C3.15481 14.75 2.875 15.0298 2.875 15.375C2.875 15.7202 3.15481 16 3.5 16H8.5C8.84519 16 9.125 15.7202 9.125 15.375Z" fill="white"/>
</svg>
