<svg width="56" height="56" viewBox="0 0 56 56" fill="none" xmlns="http://www.w3.org/2000/svg">
<path d="M42.875 0H13.125C5.87626 0 0 5.87626 0 13.125V42.875C0 50.1237 5.87626 56 13.125 56H42.875C50.1237 56 56 50.1237 56 42.875V13.125C56 5.87626 50.1237 0 42.875 0Z" fill="#00005B"/>
<path d="M23.0031 34.1513H14.3231L12.5497 39.6578C12.5031 39.8678 12.3165 40.0078 12.1065 39.9847H7.71966C7.46306 39.9847 7.39306 39.8447 7.46306 39.5647L14.9765 18.0278C15.0465 17.7947 15.1165 17.5847 15.2097 17.3047C15.3031 16.8147 15.3497 16.3012 15.3497 15.7878C15.3265 15.6712 15.4197 15.5547 15.5363 15.5312H21.5797C21.7431 15.5312 21.8597 15.6012 21.8831 15.7178L30.3997 39.5178C30.4697 39.7747 30.3997 39.8913 30.1665 39.8913H25.2897C25.1265 39.9147 24.9631 39.7978 24.9165 39.6347L23.0031 34.0347V34.1513ZM15.6765 29.5078H21.6031C21.4631 29.0178 21.2763 28.4347 21.0663 27.8278C20.8563 27.1978 20.6463 26.5213 20.4363 25.8213C20.2031 25.0978 19.9931 24.3978 19.7597 23.6747C19.5263 22.9515 19.3165 22.2747 19.1297 21.5978C18.9431 20.9447 18.7797 20.3378 18.6163 19.7778H18.5697C18.3597 20.7813 18.1031 21.7847 17.7763 22.7878C17.4263 23.9078 17.0763 25.0747 16.7031 26.2413C16.3997 27.4313 16.0263 28.5278 15.6765 29.5078ZM44.1431 32.0513H36.7465C36.8397 32.7747 37.0731 33.4978 37.4697 34.1278C37.8897 34.7578 38.4731 35.2478 39.1731 35.5278C40.1065 35.9247 41.1331 36.1347 42.1597 36.1113C42.9765 36.0878 43.7931 36.0178 44.5865 35.8547C45.2981 35.7616 45.9955 35.5813 46.6631 35.3178C46.7797 35.2247 46.8497 35.2713 46.8497 35.5047V39.0747C46.8497 39.1678 46.8265 39.2613 46.8031 39.3547C46.7565 39.4247 46.7097 39.4713 46.6397 39.5178C45.8934 39.8456 45.1099 40.0807 44.3065 40.2178C43.215 40.4278 42.1043 40.5217 40.9931 40.4978C39.2197 40.4978 37.7265 40.2178 36.5131 39.6812C35.3697 39.1912 34.3665 38.4213 33.5731 37.4647C32.8343 36.5657 32.2865 35.5256 31.9631 34.4078C31.6365 33.3113 31.4731 32.1678 31.4731 31.0013C31.4731 29.7413 31.6597 28.5047 32.0565 27.2913C32.4284 26.1229 33.0226 25.0375 33.8065 24.0947C34.5765 23.1613 35.5331 22.4147 36.6297 21.8778C37.7265 21.3413 39.0331 21.1547 40.5265 21.1547C41.7631 21.1313 42.9997 21.3647 44.1431 21.8778C45.0997 22.2978 45.9397 22.9278 46.5931 23.7447C47.1997 24.5378 47.6897 25.4247 47.9931 26.4047C48.2965 27.3378 48.4365 28.2947 48.4365 29.2513C48.4365 29.8113 48.4131 30.3013 48.3897 30.7447C48.3431 31.1878 48.3197 31.5147 48.2965 31.7247C48.2731 31.8878 48.1331 32.0278 47.9697 32.0278C47.8297 32.0278 47.5731 32.0513 47.1997 32.0747C46.8265 32.1213 46.3831 32.1447 45.8465 32.1447C45.3097 32.1447 44.7497 32.0513 44.1431 32.0513ZM36.7465 28.6447H41.6697C42.2765 28.6447 42.7197 28.6447 42.9997 28.6213C43.1865 28.5978 43.3731 28.5513 43.5365 28.4347V28.2013C43.5372 27.9077 43.4899 27.6161 43.3965 27.3378C42.9765 26.0313 41.7397 25.1447 40.3631 25.1913C39.7298 25.1558 39.0998 25.3043 38.5491 25.619C37.9984 25.9337 37.5506 26.4011 37.2597 26.9647C36.9797 27.5013 36.8165 28.0613 36.7465 28.6447Z" fill="#9999FF"/>
</svg>
