<svg width="16" height="16" viewBox="0 0 16 16" fill="none" xmlns="http://www.w3.org/2000/svg">
<path d="M8.9375 4.71875C9.19638 4.71875 9.40625 4.50888 9.40625 4.25C9.40625 3.99112 9.19638 3.78125 8.9375 3.78125C8.67862 3.78125 8.46875 3.99112 8.46875 4.25C8.46875 4.50888 8.67862 4.71875 8.9375 4.71875Z" fill="white"/>
<path d="M10.8125 4.71875C11.0714 4.71875 11.2812 4.50888 11.2812 4.25C11.2812 3.99112 11.0714 3.78125 10.8125 3.78125C10.5536 3.78125 10.3438 3.99112 10.3438 4.25C10.3438 4.50888 10.5536 4.71875 10.8125 4.71875Z" fill="white"/>
<path d="M12.6875 4.71875C12.9464 4.71875 13.1562 4.50888 13.1562 4.25C13.1562 3.99112 12.9464 3.78125 12.6875 3.78125C12.4286 3.78125 12.2188 3.99112 12.2188 4.25C12.2188 4.50888 12.4286 4.71875 12.6875 4.71875Z" fill="white"/>
<path d="M10.5379 15.0312C11.3096 15.0312 11.9375 14.4004 11.9375 13.625V11.75C11.9375 11.5483 11.8085 11.3693 11.6173 11.3054L8.81147 10.3679C8.67409 10.322 8.52338 10.3422 8.40291 10.4225L7.20969 11.2179C5.92913 10.6103 4.41559 9.11019 3.81359 7.85238L4.60878 6.65959C4.68906 6.53916 4.70922 6.38834 4.66334 6.25103L3.72584 3.44519C3.66194 3.25394 3.48291 3.125 3.28125 3.125H1.40625C0.630844 3.125 0 3.75284 0 4.52459C0 7.1145 1.17762 9.77259 3.23094 11.8173C5.282 13.8598 7.94531 15.0312 10.5379 15.0312ZM1.40625 4.0625H2.94366L3.70147 6.3305L2.89125 7.54581C2.80562 7.67425 2.78872 7.83659 2.84606 7.97991C3.15778 8.75919 3.78159 9.63566 4.60256 10.4479C5.41813 11.2547 6.29888 11.8717 7.08259 12.1852C7.22588 12.2425 7.38828 12.2256 7.51669 12.14L8.73203 11.3298L11 12.0876V13.625C11 13.8878 10.797 14.0938 10.5379 14.0938C5.60313 14.0938 0.9375 9.44331 0.9375 4.52459C0.9375 4.26547 1.14341 4.0625 1.40625 4.0625Z" fill="white"/>
<path d="M8.75813 9.37056C8.93325 9.44312 9.13491 9.403 9.26897 9.26897L11.0067 7.53125H12.6875C14.514 7.53125 16 6.05928 16 4.25C16 2.44072 14.514 0.96875 12.6875 0.96875H8.9375C7.12822 0.96875 5.65625 2.44072 5.65625 4.25C5.65625 5.90016 6.88072 7.26972 8.46875 7.49788V8.9375C8.46875 9.12709 8.58297 9.298 8.75813 9.37056ZM6.59375 4.25C6.59375 2.95766 7.64516 1.90625 8.9375 1.90625H12.6875C13.9971 1.90625 15.0625 2.95766 15.0625 4.25C15.0625 5.54234 13.9971 6.59375 12.6875 6.59375H10.8125C10.6882 6.59375 10.5689 6.64313 10.4811 6.73103L9.40625 7.80584V7.0625C9.40625 6.80363 9.19637 6.59375 8.9375 6.59375C7.64516 6.59375 6.59375 5.54234 6.59375 4.25Z" fill="white"/>
</svg>
