<svg width="56" height="56" viewBox="0 0 56 56" fill="none" xmlns="http://www.w3.org/2000/svg">
<g clip-path="url(#clip0_510_417)">
<path d="M0 14C0 6.26806 6.26806 0 14 0H42C49.7319 0 56 6.26806 56 14V42C56 49.7319 49.7319 56 42 56H14C6.26806 56 0 49.7319 0 42V14Z" fill="#FFDD33"/>
<path d="M37.2302 10.6758H32.1466L36.3829 18.119L27.0631 10.6758H21.9796L26.6396 19.7732L16.896 10.6758H11.8125L16.896 22.2557L11.8125 45.4133H16.896L26.6396 20.6013L21.9796 45.4133H27.0631L36.3829 18.9472L32.1466 45.4133H37.2302L46.55 16.4646L37.2302 10.6758Z" fill="black"/>
</g>
<defs>
<clipPath id="clip0_510_417">
<rect width="56" height="56" fill="white"/>
</clipPath>
</defs>
</svg>
