<svg width="16" height="16" viewBox="0 0 16 16" fill="none" xmlns="http://www.w3.org/2000/svg">
<path d="M14.125 1.5H1.875C0.841125 1.5 0 2.34113 0 3.375V4.92172L6.88097 10.0399C7.21562 10.2888 7.60781 10.4132 8 10.4132C8.39219 10.4132 8.78437 10.2888 9.11903 10.0399L16 4.92172V3.375C16 2.34113 15.1589 1.5 14.125 1.5ZM14.75 4.29362L8.37303 9.03687C8.14991 9.20284 7.85009 9.20284 7.627 9.03687L1.25 4.29362V3.375C1.25 3.03038 1.53038 2.75 1.875 2.75H14.125C14.4696 2.75 14.75 3.03038 14.75 3.375V4.29362ZM14.75 7.40934L16 6.47959V12.625C16 13.6589 15.1589 14.5 14.125 14.5H1.875C0.841125 14.5 0 13.6589 0 12.625V6.47959L1.25 7.40934V12.625C1.25 12.9696 1.53038 13.25 1.875 13.25H14.125C14.4696 13.25 14.75 12.9696 14.75 12.625V7.40934Z" fill="white"/>
</svg>
