<svg width="134" height="21" viewBox="0 0 134 21" fill="none" xmlns="http://www.w3.org/2000/svg">
<path d="M0.9 16V1.28H5.3C6.78 1.28 8.04 1.5 9.08 1.94C10.12 2.38 10.9533 2.96667 11.58 3.7C12.22 4.43333 12.6867 5.25333 12.98 6.16C13.2733 7.06667 13.42 7.98 13.42 8.9C13.42 9.99333 13.22 10.98 12.82 11.86C12.4333 12.7267 11.9 13.4733 11.22 14.1C10.54 14.7133 9.75333 15.1867 8.86 15.52C7.96667 15.84 7.02 16 6.02 16H0.9ZM3.8 13.2H5.52C6.25333 13.2 6.92 13.1067 7.52 12.92C8.12 12.72 8.63333 12.4333 9.06 12.06C9.5 11.6867 9.83333 11.22 10.06 10.66C10.3 10.0867 10.42 9.43333 10.42 8.7C10.42 7.74 10.26 6.96 9.94 6.36C9.63333 5.74667 9.24667 5.27333 8.78 4.94C8.32667 4.60667 7.86 4.38 7.38 4.26C6.9 4.12667 6.49333 4.06 6.16 4.06H3.8V13.2ZM15.8697 7.26H18.6697V16H15.8697V7.26ZM15.8097 4.16C15.8097 3.74667 15.9697 3.40667 16.2897 3.14C16.623 2.87333 16.9764 2.74 17.3497 2.74C17.723 2.74 18.063 2.87333 18.3697 3.14C18.6897 3.40667 18.8497 3.74667 18.8497 4.16C18.8497 4.57333 18.6897 4.91333 18.3697 5.18C18.063 5.43333 17.723 5.56 17.3497 5.56C16.9764 5.56 16.623 5.43333 16.2897 5.18C15.9697 4.91333 15.8097 4.57333 15.8097 4.16ZM26.0733 20.4C25.2866 20.4 24.6199 20.3067 24.0733 20.12C23.5399 19.9333 23.0866 19.7067 22.7133 19.44C22.3399 19.1733 22.0066 18.92 21.7133 18.68L23.3533 16.76C23.6599 17.04 24.0133 17.3067 24.4133 17.56C24.8266 17.8267 25.3666 17.96 26.0333 17.96C26.4733 17.96 26.8799 17.88 27.2533 17.72C27.6399 17.5733 27.9466 17.3533 28.1733 17.06C28.4133 16.7667 28.5333 16.4 28.5333 15.96V14.04L28.6333 14.54C28.4199 14.9933 28.0333 15.3933 27.4733 15.74C26.9133 16.0733 26.1799 16.24 25.2733 16.24C24.4866 16.24 23.7533 16.04 23.0733 15.64C22.4066 15.2267 21.8733 14.6733 21.4733 13.98C21.0733 13.2733 20.8733 12.4733 20.8733 11.58C20.8733 10.66 21.0866 9.84667 21.5133 9.14C21.9399 8.42 22.4933 7.85333 23.1733 7.44C23.8533 7.02667 24.5733 6.82 25.3333 6.82C26.0933 6.82 26.7466 6.93333 27.2933 7.16C27.8533 7.37333 28.2733 7.64 28.5533 7.96L28.4533 8.22L28.7533 7.26H31.3333V16C31.3333 16.8533 31.0933 17.6067 30.6133 18.26C30.1333 18.9267 29.4933 19.4467 28.6933 19.82C27.9066 20.2067 27.0333 20.4 26.0733 20.4ZM23.6933 11.5C23.6933 11.9667 23.7999 12.3867 24.0133 12.76C24.2266 13.1333 24.5133 13.4267 24.8733 13.64C25.2466 13.8533 25.6599 13.96 26.1133 13.96C26.4999 13.96 26.8399 13.9133 27.1333 13.82C27.4399 13.7133 27.7066 13.5667 27.9333 13.38C28.1733 13.18 28.3733 12.9333 28.5333 12.64V10.5C28.4133 10.2067 28.2333 9.96 27.9933 9.76C27.7533 9.54667 27.4733 9.38667 27.1533 9.28C26.8466 9.16 26.4999 9.1 26.1133 9.1C25.6599 9.1 25.2466 9.20667 24.8733 9.42C24.5133 9.62 24.2266 9.9 24.0133 10.26C23.7999 10.62 23.6933 11.0333 23.6933 11.5ZM34.2095 7.26H37.0095V16H34.2095V7.26ZM34.1495 4.16C34.1495 3.74667 34.3095 3.40667 34.6295 3.14C34.9629 2.87333 35.3162 2.74 35.6895 2.74C36.0629 2.74 36.4029 2.87333 36.7095 3.14C37.0295 3.40667 37.1895 3.74667 37.1895 4.16C37.1895 4.57333 37.0295 4.91333 36.7095 5.18C36.4029 5.43333 36.0629 5.56 35.6895 5.56C35.3162 5.56 34.9629 5.43333 34.6295 5.18C34.3095 4.91333 34.1495 4.57333 34.1495 4.16ZM40.7131 3.42H43.5131V7.22H45.6331V9.4H43.5131V16H40.7131V9.4H39.3531V7.22H40.7131V3.42ZM51.4442 16.24C50.6309 16.24 49.8909 16.08 49.2242 15.76C48.5709 15.4267 48.0509 14.92 47.6642 14.24C47.2776 13.56 47.0842 12.6933 47.0842 11.64C47.0842 10.6533 47.2842 9.8 47.6842 9.08C48.0842 8.36 48.6109 7.80667 49.2642 7.42C49.9176 7.02 50.6109 6.82 51.3442 6.82C52.2109 6.82 52.8642 6.96667 53.3042 7.26C53.7576 7.54 54.1309 7.85333 54.4242 8.2L54.3042 8.54L54.5642 7.26H57.1642V16H54.3642V14.1L54.5842 14.7C54.5576 14.7 54.4776 14.78 54.3442 14.94C54.2109 15.0867 54.0109 15.2667 53.7442 15.48C53.4909 15.68 53.1709 15.8533 52.7842 16C52.4109 16.16 51.9642 16.24 51.4442 16.24ZM52.2442 13.96C52.5776 13.96 52.8776 13.9133 53.1442 13.82C53.4109 13.7133 53.6442 13.5667 53.8442 13.38C54.0442 13.18 54.2176 12.9333 54.3642 12.64V10.5C54.2576 10.2067 54.0976 9.96 53.8842 9.76C53.6709 9.54667 53.4176 9.38667 53.1242 9.28C52.8309 9.16 52.5042 9.1 52.1442 9.1C51.7442 9.1 51.3709 9.20667 51.0242 9.42C50.6909 9.62 50.4242 9.9 50.2242 10.26C50.0242 10.62 49.9242 11.0333 49.9242 11.5C49.9242 11.9667 50.0309 12.3867 50.2442 12.76C50.4576 13.1333 50.7376 13.4267 51.0842 13.64C51.4442 13.8533 51.8309 13.96 52.2442 13.96ZM60.0494 0.219999H62.8494V16H60.0494V0.219999Z" fill="white"/>
<path d="M64.533 16L71.173 0.699999H71.333L77.973 16H74.613L70.373 5.24L72.473 3.8L67.393 16H64.533ZM69.073 10.68H73.493L74.513 13.12H68.173L69.073 10.68ZM83.8858 20.4C83.0991 20.4 82.4324 20.3067 81.8858 20.12C81.3524 19.9333 80.8991 19.7067 80.5258 19.44C80.1524 19.1733 79.8191 18.92 79.5258 18.68L81.1658 16.76C81.4724 17.04 81.8258 17.3067 82.2258 17.56C82.6391 17.8267 83.1791 17.96 83.8458 17.96C84.2858 17.96 84.6924 17.88 85.0658 17.72C85.4524 17.5733 85.7591 17.3533 85.9858 17.06C86.2258 16.7667 86.3458 16.4 86.3458 15.96V14.04L86.4458 14.54C86.2324 14.9933 85.8458 15.3933 85.2858 15.74C84.7258 16.0733 83.9924 16.24 83.0858 16.24C82.2991 16.24 81.5658 16.04 80.8858 15.64C80.2191 15.2267 79.6858 14.6733 79.2858 13.98C78.8858 13.2733 78.6858 12.4733 78.6858 11.58C78.6858 10.66 78.8991 9.84667 79.3258 9.14C79.7524 8.42 80.3058 7.85333 80.9858 7.44C81.6658 7.02667 82.3858 6.82 83.1458 6.82C83.9058 6.82 84.5591 6.93333 85.1058 7.16C85.6658 7.37333 86.0858 7.64 86.3658 7.96L86.2658 8.22L86.5658 7.26H89.1458V16C89.1458 16.8533 88.9058 17.6067 88.4258 18.26C87.9458 18.9267 87.3058 19.4467 86.5058 19.82C85.7191 20.2067 84.8458 20.4 83.8858 20.4ZM81.5058 11.5C81.5058 11.9667 81.6124 12.3867 81.8258 12.76C82.0391 13.1333 82.3258 13.4267 82.6858 13.64C83.0591 13.8533 83.4724 13.96 83.9258 13.96C84.3124 13.96 84.6524 13.9133 84.9458 13.82C85.2524 13.7133 85.5191 13.5667 85.7458 13.38C85.9858 13.18 86.1858 12.9333 86.3458 12.64V10.5C86.2258 10.2067 86.0458 9.96 85.8058 9.76C85.5658 9.54667 85.2858 9.38667 84.9658 9.28C84.6591 9.16 84.3124 9.1 83.9258 9.1C83.4724 9.1 83.0591 9.20667 82.6858 9.42C82.3258 9.62 82.0391 9.9 81.8258 10.26C81.6124 10.62 81.5058 11.0333 81.5058 11.5ZM96.322 16.24C95.2554 16.24 94.3487 16.04 93.602 15.64C92.8687 15.24 92.3087 14.6867 91.922 13.98C91.5354 13.2733 91.342 12.46 91.342 11.54C91.342 10.66 91.5687 9.86667 92.022 9.16C92.4754 8.45333 93.082 7.89333 93.842 7.48C94.602 7.05333 95.4487 6.84 96.382 6.84C97.6354 6.84 98.662 7.20667 99.462 7.94C100.275 8.66 100.802 9.70667 101.042 11.08L94.242 13.24L93.622 11.72L98.542 10.06L97.962 10.32C97.8554 9.97333 97.662 9.67333 97.382 9.42C97.1154 9.15333 96.7087 9.02 96.162 9.02C95.7487 9.02 95.382 9.12 95.062 9.32C94.7554 9.50667 94.5154 9.78 94.342 10.14C94.182 10.4867 94.102 10.9 94.102 11.38C94.102 11.9267 94.202 12.3867 94.402 12.76C94.602 13.12 94.8754 13.3933 95.222 13.58C95.5687 13.7667 95.9554 13.86 96.382 13.86C96.6887 13.86 96.982 13.8067 97.262 13.7C97.5554 13.5933 97.842 13.4533 98.122 13.28L99.362 15.36C98.8954 15.6267 98.3887 15.84 97.842 16C97.3087 16.16 96.802 16.24 96.322 16.24ZM105.617 7.26L105.837 8.82L105.797 8.68C106.103 8.13333 106.537 7.69333 107.097 7.36C107.657 7.01333 108.343 6.84 109.157 6.84C109.983 6.84 110.67 7.08667 111.217 7.58C111.777 8.06 112.063 8.68667 112.077 9.46V16H109.277V10.5C109.263 10.1133 109.157 9.80667 108.957 9.58C108.77 9.34 108.45 9.22 107.997 9.22C107.57 9.22 107.197 9.36 106.877 9.64C106.557 9.92 106.31 10.3 106.137 10.78C105.963 11.26 105.877 11.8133 105.877 12.44V16H103.077V7.26H105.617ZM122.372 15.22C121.985 15.5267 121.498 15.7733 120.912 15.96C120.338 16.1467 119.772 16.24 119.212 16.24C118.212 16.24 117.338 16.06 116.592 15.7C115.858 15.3267 115.285 14.8 114.872 14.12C114.472 13.4267 114.272 12.5933 114.272 11.62C114.272 10.6467 114.492 9.82 114.932 9.14C115.372 8.44667 115.945 7.92 116.652 7.56C117.372 7.2 118.125 7.02 118.912 7.02C119.698 7.02 120.378 7.12667 120.952 7.34C121.538 7.55333 122.038 7.83333 122.452 8.18L121.092 9.98C120.905 9.83333 120.645 9.68667 120.312 9.54C119.992 9.38 119.612 9.3 119.172 9.3C118.785 9.3 118.432 9.4 118.112 9.6C117.792 9.8 117.538 10.0733 117.352 10.42C117.165 10.7667 117.072 11.1667 117.072 11.62C117.072 12.0467 117.172 12.44 117.372 12.8C117.572 13.16 117.845 13.4467 118.192 13.66C118.552 13.86 118.972 13.96 119.452 13.96C119.758 13.96 120.038 13.92 120.292 13.84C120.558 13.7467 120.785 13.62 120.972 13.46L122.372 15.22ZM125.222 20.2L131.042 7.26H133.562L127.922 20.2H125.222ZM127.562 16.04L123.282 7.26H126.422L129.722 14.64L127.562 16.04Z" fill="#6FFF90"/>
</svg>
